<?xml version="1.0" standalone="no"?>
<!DOCTYPE svg PUBLIC "-//W3C//DTD SVG 20010904//EN"
 "http://www.w3.org/TR/2001/REC-SVG-20010904/DTD/svg10.dtd">
<svg version="1.0" xmlns="http://www.w3.org/2000/svg"
 width="214.000000pt" height="196.000000pt" viewBox="0 0 214.000000 196.000000"
 preserveAspectRatio="xMidYMid meet">

<g transform="translate(0.000000,196.000000) scale(0.100000,-0.100000)"
fill="#000000" stroke="none">
<path d="M463 1926 c-150 -35 -307 -156 -372 -288 -46 -93 -61 -160 -61 -273
0 -107 14 -178 53 -271 l24 -56 200 1 c236 2 230 4 263 -106 11 -40 23 -73 25
-73 2 0 31 45 65 100 110 178 124 174 201 -50 l56 -164 7 49 c3 28 27 210 52
405 24 195 47 363 50 372 6 21 37 32 64 23 25 -8 25 -8 75 -315 l41 -255 124
-5 c131 -5 150 -10 150 -39 0 -37 -19 -41 -181 -41 -124 0 -159 3 -168 14 -7
8 -22 72 -34 143 l-22 128 -16 -135 c-49 -396 -71 -557 -79 -577 -13 -32 -64
-32 -84 -1 -8 13 -42 112 -77 221 -49 153 -66 195 -75 185 -6 -7 -37 -56 -69
-108 -63 -103 -69 -110 -102 -110 -31 0 -45 27 -79 148 l-29 102 -153 0 -153
0 43 -62 c73 -104 248 -296 394 -433 227 -212 465 -425 474 -425 9 0 249 215
473 424 144 135 301 305 382 416 l47 65 -72 5 c-80 5 -106 23 -84 58 9 14 30
18 110 22 l99 5 23 50 c40 83 62 189 62 294 0 167 -49 290 -159 401 -219 222
-581 226 -825 8 l-56 -50 -56 50 c-62 56 -143 102 -231 133 -76 27 -235 34
-320 15z m1281 -928 c8 -13 8 -23 0 -35 -9 -15 -28 -19 -104 -21 -96 -3 -120
5 -120 39 0 30 30 39 124 36 72 -2 91 -5 100 -19z"/>
</g>
</svg>
